/* XPM */
static char *_e67ce5d2dba45cbbae9b19e2a5367c3kQCKTeO6rwFPqZoV[] = {
/* columns rows colors chars-per-pixel */
"64 64 215 2 ",
"   c None",
".  c #000001",
"X  c #0A0A06",
"o  c #090B0A",
"O  c #06080A",
"+  c #18130B",
"@  c #0E1216",
"#  c #131416",
"$  c #1B1C1C",
"%  c #100F0C",
"&  c #271C0A",
"*  c #241F13",
"=  c #2D210F",
"-  c #2D2212",
";  c #222219",
":  c #362B16",
">  c #1C1E23",
",  c #142638",
"<  c #2C2C2C",
"1  c #252525",
"2  c #312E2B",
"3  c #2C2D30",
"4  c #273238",
"5  c #343637",
"6  c #32322F",
"7  c #513A19",
"8  c #493A22",
"9  c #6A4A1F",
"0  c #594629",
"q  c #59513B",
"w  c #484633",
"e  c #795829",
"r  c #765C37",
"t  c #69522F",
"y  c #7D6239",
"u  c #2B3B43",
"i  c #323D4A",
"p  c #3B4548",
"a  c #314152",
"s  c #444444",
"d  c #4A4A4A",
"f  c #464D4D",
"g  c #595848",
"h  c #4E5458",
"j  c #565655",
"k  c #5A5B5B",
"l  c #414C5C",
"z  c #635D50",
"x  c #5F604A",
"c  c #7A6A4D",
"v  c #676657",
"b  c #746A58",
"n  c #78765C",
"m  c #4D5C6B",
"M  c #5B5F63",
"N  c #545D73",
"B  c #57616B",
"V  c #656667",
"C  c #726D66",
"Z  c #7A7768",
"A  c #636D7A",
"S  c #666D72",
"D  c #6B7276",
"F  c #6E787E",
"G  c #757776",
"H  c #835D28",
"J  c #886839",
"K  c #956D33",
"L  c #B07F3D",
"P  c #876C42",
"I  c #8C734B",
"U  c #967847",
"Y  c #887758",
"T  c #937B54",
"R  c #A37F49",
"E  c #837965",
"W  c #827C73",
"Q  c #BB873E",
"!  c #A38049",
"~  c #BB8A43",
"^  c #A98956",
"/  c #BF9E59",
"(  c #868669",
")  c #99906D",
"_  c #89867D",
"`  c #848376",
"'  c #9B987B",
"]  c #938D7E",
"[  c #AA916B",
"{  c #A79875",
"}  c #B1976B",
"|  c #BEA77A",
" . c #C38D44",
".. c #CC9444",
"X. c #D69B47",
"o. c #C19D5B",
"O. c #CCAC5E",
"+. c #ECA94A",
"@. c #E2A44C",
"#. c #F3AD4B",
"$. c #F9B755",
"%. c #FBB34E",
"&. c #CAA861",
"*. c #D4AD66",
"=. c #DAB26E",
"-. c #E4B967",
";. c #F3BF6C",
":. c #EEBF73",
">. c #F5C56C",
",. c #FBCD73",
"<. c #F4C676",
"1. c #FED575",
"2. c #F2C96D",
"3. c #FFE579",
"4. c #5E6D88",
"5. c #6E7A81",
"6. c #697586",
"7. c #707A86",
"8. c #767E88",
"9. c #69768C",
"0. c #7A838A",
"q. c #7A8692",
"w. c #838485",
"e. c #888C8B",
"r. c #95968D",
"t. c #838D96",
"y. c #89949B",
"u. c #899498",
"i. c #929594",
"p. c #999B97",
"a. c #9CA49C",
"s. c #A7A68B",
"d. c #B2AA8A",
"f. c #A6A894",
"g. c #B2AC9D",
"h. c #B4B493",
"j. c #BABB9B",
"k. c #BBBB95",
"l. c #B1B596",
"z. c #8C98A6",
"x. c #929CA5",
"c. c #989DA6",
"v. c #9CA5AE",
"b. c #9BA7AC",
"n. c #9CA7B3",
"m. c #A3ABAD",
"M. c #A5A8A6",
"N. c #AEB4A7",
"B. c #B6BBA8",
"V. c #A3ADB4",
"C. c #AAAFB5",
"Z. c #A5B1B6",
"A. c #ADBDBE",
"S. c #A9B4B7",
"D. c #B9B9BA",
"F. c #CAB48C",
"G. c #BFC4B4",
"H. c #D9CE97",
"J. c #E4D99B",
"K. c #FFE985",
"L. c #FBE796",
"P. c #FBE997",
"I. c #F5E69B",
"U. c #F8E799",
"Y. c #FBE99D",
"T. c #F5EB97",
"R. c #FFF29C",
"E. c #C0C3A7",
"W. c #C6CDBA",
"Q. c #C7CBB4",
"!. c #D5D8B9",
"~. c #D0D2AC",
"^. c #DEE2BD",
"/. c #ECE3A8",
"(. c #E2E2BC",
"). c #E8E6B9",
"_. c #F8EEAD",
"`. c #A8BAC6",
"'. c #B5C5C5",
"]. c #B7C8C7",
"[. c #BBCBCB",
"{. c #B9C8C9",
"}. c #BECCD7",
"|. c #AFC0C0",
" X c #CCCCCD",
".X c #CAD4C7",
"XX c #D9DFC4",
"oX c #C3D3D3",
"OX c #CDDDDD",
"+X c #C9D6D8",
"@X c #D3DBD8",
"#X c #DEE2C3",
"$X c #DBE5D9",
"%X c #E3E3C2",
"&X c #E9E9C7",
"*X c #EFF1C7",
"=X c #F3F3C4",
"-X c #FDFDCD",
";X c #F5F5CB",
":X c #FFFFD4",
">X c #FFFFDC",
",X c #F7F7D6",
"<X c #E3EDD2",
"1X c #CCDEE2",
"2X c #D5DEE4",
"3X c #D1E1E2",
"4X c #D9E5ED",
"5X c #D5E4E9",
"6X c #D9E6F1",
"7X c #FFFFE5",
"8X c #E1EBF9",
"9X c #E6F1FF",
"0X c #FFFFFF",
"qX c #F9F9F4",
"wX c #E9EEE5",
/* pixels */
"                                                                                                                                ",
"                                                                                                                                ",
"                                                                                                                                ",
"                                                                                                                                ",
"                                                                                                                                ",
"                                                                                                                                ",
"                                                                                                                                ",
"                                                                                                                                ",
"                                                                                                                                ",
"                                                                                                                                ",
"                                                                                                                                ",
"                                                                                                                                ",
"                                                                                                                                ",
"                                                                                                                                ",
"                                                                                                                                ",
"                                                5 $ p.                                                                          ",
"                                              D.@ . y.0X0X                                                                      ",
"                                            h b ! ! b V M v                                                                     ",
"                                          i . 8 =.3.t . . . . S                                                                 ",
"                                        @Xg & 0 &.<.t @ # * & C @X                                                              ",
"                                      5 2 ^ O.^ x g B A G / O.I 6 6 6                                                           ",
"                                    w.. . ~ 3.&.p , B 0.e.<.3.K . . . . 5                                                       ",
"                                  w.` n n [ | { ) ( a.n.M.d.| ) n n n n Z e.                                                    ",
"                                < O n &X;Xa.4.p.J.T.^.5X}.t.A g.=X=X;X,Xh.$ O o                                                 ",
"                               X< . E ;X-Xf.9.a.I.R.(.5XoXz.6.B.-X-X-X>Xj.; X % X 6 G.                                          ",
"                            d j s.h.G..X.X~.H.H.I.I././.). X}. X$X$XB.a.a.h.k.k.h.s.v d f                                       ",
"                          h . % #X7X<X|.`./.Y.Y.I.I.P.K.Y.wX9X4X3X+Xz.N p.-X:X:X>X^.; . . . .                                   ",
"                        C.b 8 q G.!.!.G.W./.Y.I.I.I._./.).$X6X3XOXOXb.q.b.#X&X^.!.G.b d q 8 0 w.C.                              ",
"                      < > U -.*.r.0.h.I.I.I.Y.Y.U.P.(.OX$XOX1XOX1X1X].G.G.[.[.b.8.i.~.(.H.-.*.t > $ $ 1                         ",
"                  0XD.o . ! 1.<.0.4.d.U.P.I.I.I.L.L.#X1X1X1XOXOXOX1X}.[.].].'.x.A e.*X7X_.1.>.0 . . . . D                       ",
"                i.G Z J J I T Y 0.5.N.<X&X&X&X%X%X^.@XOXOXOXOXOXOXOX[.].'.].].A.b.b.N.B.f.T Y P e e e e c G                     ",
"              0X$ . : ,.K.n 4 a F 6.Z.8X9X8X8X6X1XOXOXOXOXOX1XOX3XOX[.'.'.'.'.'.[.'.t.7.S u p R #.@.$.$.e .                     ",
"                j 3 g / &.Y g z w.w.C.2X2X5X5X3XOXOXOXOXOXOXOXOXOXoX[.'.'.'.'.].[.|.t.8.D p f ! #...~ Q r 5                     ",
"                   Xp.8 - U =.*.=.-.F.V.Z.].[.}.OX3XOX1X3XOXOXoX[.].].'.'.].'.'.[.A.t.q.5.m B ^ +.~ - - C  X                    ",
"                      . . R 1.1.,.1.F.x.z.S.`.].OX3X$X3X3X3X3X+X'.'.'.].'.'.'.].].A.y.0.5.m N ^ %.R . . D                       ",
"                        V I U U J K { G.W..X#X.X[.].{.].[.}.+X[.].'.'.'.].].'.'.].A.q.F G Y Y P H y V C                         ",
"                            . . . . n -X:X:X:X&Xb.z.v.z.v.'.[.].[.'.'.'.].'.].[.oXA.A p Y #.@.7 . 2 qX                          ",
"                              # # # E (.*X).).!.V.b.m.m.m.A.'.|.'.'.'.'.'.'.'.|.'.S.F B E X...0 #                               ",
"                                M.p.` v x g x ` Q.XX!.#XW.u.F u.Z.Z.Z.Z.Z.Z.Z.y.5.t.N.Q.' 7 0 W                                 ",
"                                    0.. . . . 8 *X7X:X7X*XD i 6.z.n.v.n.n.n.b.0.a S =X7Xh.. .                                   ",
"                                        s d d v h.k.F.j.h.( C ] g.g.u.q.y.x.x.e.b E d.B.' s                                     ",
"                                            qXM.1 % @ X : o.,.;.,.:.n u h 8.q.[ +.~ : X j                                       ",
"                                                > . O . ; o.1.;.>.-.c 4 h 7.q.[ #.Q & .                                         ",
"                                                    w.w.W c y y y y P I T [ [ P 9 r G                                           ",
"                                                        2X3 . . . . K $.#.#.+.9 . 1                                             ",
"                                                            1 < < 2 J .. . . .r 1                                               ",
"                                                                 XD.z & - = - Z                                                 ",
"                                                                    k . . . .                                                   ",
"                                                                        M j k                                                   ",
"                                                                                                                                ",
"                                                                                                                                ",
"                                                                                                                                ",
"                                                                                                                                ",
"                                                                                                                                ",
"                                                                                                                                ",
"                                                                                                                                ",
"                                                                                                                                ",
"                                                                                                                                ",
"                                                                                                                                ",
"                                                                                                                                ",
"                                                                                                                                ",
"                                                                                                                                ",
"                                                                                                                                ",
"                                                                                                                                "
};
