/* XPM */
static char *_a22bbb11a7f4329f644daeac20030e1rVQBQYnhy9n0ICME[] = {
/* columns rows colors chars-per-pixel */
"64 64 247 2 ",
"   c #36383C",
".  c #3D4239",
"X  c #464A3C",
"o  c #525737",
"O  c #5F682E",
"+  c #6A7828",
"@  c #757D2B",
"#  c #686F36",
"$  c #777D33",
"%  c #2E2F40",
"&  c #343647",
"*  c #3B3C44",
"=  c #35364A",
"-  c #3A3B4D",
";  c #3C3D52",
":  c #3D3F58",
">  c #413F50",
",  c #3E4246",
"<  c #3F4054",
"1  c #3E4161",
"2  c #454747",
"3  c #4E5149",
"4  c #575A48",
"5  c #414255",
"6  c #44455B",
"7  c #49495B",
"8  c #575757",
"9  c #5C624B",
"0  c #656A48",
"q  c #6C754A",
"w  c #767B47",
"e  c #65675A",
"r  c #757A58",
"t  c #484A67",
"y  c #4D4F6D",
"u  c #545568",
"i  c #4E5277",
"p  c #545677",
"a  c #5E6273",
"s  c #666867",
"d  c #747866",
"f  c #6C6C77",
"g  c #767774",
"h  c #827E72",
"j  c #6D832F",
"k  c #77832C",
"l  c #758536",
"z  c #7C8435",
"x  c #7C8A34",
"c  c #7C863B",
"v  c #7B8B3C",
"b  c #7D923D",
"n  c #7C8441",
"m  c #7E8845",
"M  c #7F9249",
"N  c #7D8457",
"B  c #7C836C",
"V  c #848C28",
"C  c #8B922C",
"Z  c #818535",
"A  c #838A35",
"S  c #8A8D36",
"D  c #82863B",
"F  c #848B3B",
"G  c #898E3C",
"H  c #8B9234",
"J  c #85923C",
"K  c #8A9539",
"L  c #8C933C",
"P  c #91963C",
"I  c #939A3C",
"U  c #9AA03E",
"Y  c #858D43",
"T  c #8B8D42",
"R  c #85874A",
"E  c #848D4B",
"W  c #928D45",
"Q  c #948E4A",
"!  c #849243",
"~  c #8C9344",
"^  c #8E9A43",
"/  c #859749",
"(  c #8C954B",
")  c #8D9A4B",
"_  c #919544",
"`  c #939B44",
"'  c #999E45",
"]  c #94954A",
"[  c #9A944D",
"{  c #949B4C",
"}  c #999D4D",
"|  c #868A57",
" . c #8C9553",
".. c #8D9858",
"X. c #949C53",
"o. c #9B9D52",
"O. c #989855",
"+. c #949C5B",
"@. c #A29C55",
"#. c #A29D5B",
"$. c #94A145",
"%. c #9CA245",
"&. c #95A24B",
"*. c #9BA24C",
"=. c #9BAA4E",
"-. c #8DA150",
";. c #96A154",
":. c #9BA353",
">. c #9BA954",
",. c #9AA75A",
"<. c #9CA45B",
"1. c #A1A74D",
"2. c #A2A554",
"3. c #A3AA54",
"4. c #A3A459",
"5. c #A3AB5B",
"6. c #A9AC5B",
"7. c #A8B25B",
"8. c #B1B75D",
"9. c #868968",
"0. c #8F9469",
"q. c #959A67",
"w. c #9A9E62",
"e. c #888777",
"r. c #959676",
"t. c #9CA563",
"y. c #9AA766",
"u. c #9BA773",
"i. c #A4AC63",
"p. c #A5AB67",
"a. c #ABB362",
"s. c #AAB568",
"d. c #B3B965",
"f. c #A5A875",
"g. c #AAAC7A",
"h. c #B0AF7E",
"j. c #AAB276",
"k. c #B4BA75",
"l. c #BCC577",
"z. c #C1C572",
"x. c #575A87",
"c. c #555B8B",
"v. c #5E628C",
"b. c #5E6396",
"n. c #787886",
"m. c #656997",
"M. c #726F91",
"N. c #5E64A2",
"B. c #696DA7",
"V. c #756DA9",
"C. c #6D72AA",
"Z. c #7375AC",
"A. c #777BB7",
"S. c #7A7EC4",
"D. c #817C82",
"F. c #857CAB",
"G. c #857CB6",
"H. c #7D81B8",
"J. c #7E82C7",
"K. c #88868A",
"L. c #938E8F",
"P. c #98968B",
"I. c #898595",
"U. c #9A9A98",
"Y. c #A39F88",
"T. c #AAAA86",
"R. c #B5B788",
"E. c #A9A798",
"W. c #B2AE91",
"Q. c #B8B59A",
"!. c #8786A7",
"~. c #958FAB",
"^. c #8886B9",
"/. c #9893B7",
"(. c #A39DB2",
"). c #B0A9AE",
"_. c #BBB7A7",
"`. c #B6ABB7",
"'. c #C2BD97",
"]. c #C3BAAB",
"[. c #C7BCB6",
"{. c #D0BFB6",
"}. c #BCC18A",
"|. c #BDC296",
" X c #BFC1B3",
".X c #C6D089",
"XX c #C4C797",
"oX c #D3E090",
"OX c #C7C4A8",
"+X c #D4CEAE",
"@X c #CAC5B8",
"#X c #D3C8BA",
"$X c #D4D4BA",
"%X c #8588C8",
"&X c #8F8DCB",
"*X c #9795C8",
"=X c #898CD2",
"-X c #9797D8",
";X c #A39CCF",
":X c #A7A3D9",
">X c #B7AED1",
",X c #9B9AE3",
"<X c #A79FE1",
"1X c #AAA8E6",
"2X c #B0A8ED",
"3X c #BBB7E8",
"4X c #BDB8F8",
"5X c #C5B9C8",
"6X c #D1BCCB",
"7X c #C4BAEE",
"8X c #C4BCFB",
"9X c #CBC4C7",
"0X c #D5CAC9",
"qX c #DCD4CA",
"wX c #CBC4D6",
"eX c #D6C8D9",
"rX c #DBD3D6",
"tX c #E3D0D5",
"yX c #E3D8DA",
"uX c #E7E3DB",
"iX c #F0E3DE",
"pX c #CBC3E6",
"aX c #D6CCE7",
"sX c #DCD3E5",
"dX c #C7C2F8",
"fX c #D4CCFA",
"gX c #DCD5FD",
"hX c #E5CFE3",
"jX c #E3D3E3",
"kX c #E7D9E6",
"lX c #E5DBEB",
"zX c #ECDBEC",
"xX c #F2DAEB",
"cX c #E6DCF8",
"vX c #F3DBF7",
"bX c #EBE4E7",
"nX c #F3E9EB",
"mX c #F3F2EB",
"MX c #ECE5F7",
"NX c #EBE3FB",
"BX c #F6E6F6",
"VX c #F3ECFC",
"CX c #FBEBFD",
"ZX c #F7F4F4",
"AX c #F7F3FC",
"SX c #FBF5FD",
"DX c #FEFDFE",
/* pixels */
") F F ! ] G Z D Q [ [ [ W U @.@.O.[ [ [ Q T T R T D T Q { _ ] { X.~ &.5.7.3.>.=.` P I ^ ~ S Z Z Z G _ ] { ] ] { X.} *.*.>.1.' %.",
"F Y T ] ' _ W W [ [ [ C W h @.[ O.[ Q O.Q Q W T T D D Q X.[ ] o.o.` &.5.7.8.7.*.K K K ^ ~ L A A A { { o.` ] ] { ] *.} *.1.} I 1.",
"Y _ { o.[ [ W Q [ [ [ h C h [ [ O.[ [ [ O.Q W Y Z D D W } o.:.4.o.` ' *.7.8.8.%.I H H I P L S S L :.>.:.~ ~ ~ ( ~ &.{ &.*.%.%.%.",
") :.4.4.@.[ W W G [ [ W W [ @.[ O.[ ] [ [ T Y Z $ D Z T { o.5.5.:.~ L ` 7.l.8.3.%.H K P K L F K _ 5.>.{ ~ ! ( ^ ) :.{ *.&.$.` $.",
"k.z.d.o.Q W G Q [ @.@.@.[ [ @.@.Q ] ] ] Q D $ @ @ Z G G ] } } 4.o.S L ` 1.1.%.I I C C I I ` ` ' { :.X.~ ! ! ! ) ) 7.a.,.>.>.>.&.",
"s.d.6.@.[ W W [ @.@.6.@.[ @.@.[ ] ] ] ] [ W Z $ $ D W G ] } *.2.} P L ` %.1.U I P H H K P I { %.&.{ ) ^ ! ~ ( ~ / i.5.>.>.:.*.$.",
":.a.i.#.} [ @.@.@.@.@.@.@.@.@.[ ] ] [ } o.{ T Z Z Z W G { *.} 4.*._ L S ` %.U U I I P H L ` &.&.*.~ ( ~ ) ) ) ( ! i.i.5.,.&.;.&.",
"X.5.a.a.4.4.2.4.@.[ W W [ U W W _ ] { o.:.} T D Z Z W _ } 2.2.3.2.` L H I %.%.%.U I H H H K ' $.&.) ) ) { X.( ! ! >.i.>.;.&.:.=.",
"] :.i.a.6.4.@.} W W S P Q ] _ ~ ( { } o.:.} _ G S S [ } 4.4.2.4.2._ P S P ' ' %.' H H A S H K ` ' { { X.:.X.( ~ E :.5.4.:.:.5.7.",
"( ] o.4.4.o.[ ] W [ [ [ [ } } X.{ { { } :.:.o.O.p.'.].#X#X{.{.Q.P.e.e.| | ` _ P H H H H S H J L ~ ;.{ { :.<.( Y Y X.<.<.,.:.a.a.",
"~ T ~ o.:.[ T W P @.@.@.} X.:.2.:.o.} @.i.h.+XqXtXxXvXvXCXvXvXgX7XG.F.F.(.U.U.Y.E.f.T T L F A J L { X.X.<.<.{ E Y T X.X.X.,.a.5.",
"Y ~ ] { X.] T ~ [ @.1.2.} } >.5.:.:.4.k.OXkXBXCXCXvXvXCXCXCXSXBXvX8X*X<X1X:X:X:X*X!.f a N J x x F ` ` X.4.4.] Y Y D E { ` o.5.5.",
"5.5.k.7.d.o.o._ o.} ] _ ~ ^ $.&.2.h.OXqXxXnXCXCXCXCXCXSXDXDXDXSXSXCXgX4X4X4X3XJ.C.Z.b.b.v.p s M Y J J &.>.{ ! ! ( z D ( { ( ] X.",
"4.7.d.a.6.o.o.[ 2.' ] P ` ' i.}.+XtXnXBXnXBXCXCXCXCXSXDXVXZXDXDXDXBXfXfXfX4X%XH.J.%XJ.A.B.N.c.t e m F v ~ ^ ~ ~ ~ z F { X.` { { ",
"{ 5.s.5.:.~ o.:.o.] _ _ %.'.qXiXiXxXBXnXnX#X#XtXqXuXyXyXyXmXDXDXCXcXNXMXcX3XC.H.=X-X=XJ.J.S.N.c.y y s l x D F ! ~ F ~ { :.o.:.o.",
"*.:.5.>.` ~ 4.4.] G G I '.nXBXnXnXnXiXOX2.@.s.h.R.R.R.XXXXXX.XR.h.R.R.OX@XwX>XJ.J.J.J.=XJ.J.C.b.c.b.b.y 0 l z F { o.X.:.:.o.4.5.",
":.:.:.:.{ ;.a.5.G Z D h.iXhXvXCXBX#Xh.R.0XxXCXSXZXAXDXDXDXDXSXZXDXuXqXOXQ.f.X.y.y.H.H.J.&X%XH.C.B.B.b.y < 2 $ v ~ { { :.:.:.6.a.",
"} { ` 5.:.5.i.2.$ $ #.0XhXvXCXnXXXs.qXzXCXSXDXDXSXDXDXDXDXDXDXDXDXDXDXAXSXAXNXrX XT.y.s.P.H.H.H.J.B.c.x.1 - , # c Y F ~ *.6.d.l.",
"~ G J 5.5.5.<.:.n w.#XhXvXCXZXR.XXnXSXDXDXDXDXDXDXDXDXZXyXqX$X+XOX@X@XyXBXAXAXVXMXgX3X*XP.y.H.H.J.S.N.x.t : = * # G D S ` 2.d.k.",
"k z Z 5.a.a.4.j.W.{.hXvXCXSX}.XXSXDXDXDXDXDXDXDXDXbX#XT.u.<.+.+.X.)  .+.T._.9XcXVXNXgXdX-XH.| B J.J.N.c.i < < =   o T D A S @.3.",
"A c J :.5.<.h.0XeXeXxXCXAX|.k.ZXDXDXDXDXDXDXDXuXOXg.;./ +.T. X_.E.T.Y.0. .y.}.E.9XcXcXgX8X-X%X9.B A.C.b.i 6 < < %   Z V S _ } 1.",
"Z F ~ &.>.<.{.5X6XCXvXvX$Xj.DXDXDXDXDXSXDXnXOXf.-.,.g.T.9XMXcXgXaXpXwXwX5X X.X,.q.Y.wXgXfX8X:X&XB e.m.b.i t 7 < =   o V G G P ` ",
"' { ~ { Q #.6XhXzXzXBXrXj.uXDXDXDXDXDXDXyXT.>.t.|.wXsXMXAXDXSXDXAXVXVXNXNXMXsXE.;.( 0.`.fX8X7X;XH.N 9.a u 7 7 < ; =   h 2.2.] P ",
"} :.] { ] W.hXxXxXzXrX;.9XDXDXDXDXAXDXnXR.X.g.@XMXAXDXDXDXAXmXuXuXuXbXMXSXAXNXfXE...) ..`.8X7X1X&XH.B q.u u 7 6 > ; & o ' ` P _ ",
"3.} ~ ;.X.#XxXhXxXnXg._.MXDXDXAXSXDXZXQ.;.u. XgXSXDXDXqXOXQ.j.y.y.y.y.j._.bXVXcX>XP... .9.`.7X>X:X%Xa G 4 u u 7 t ; - 2 D S S *.",
"_ _ x :.4.0XhXxXkX0Xf.sXMXAXVXDXDXDX#X<.+._.sXAXDXnX|.s.=.&.&.=.=.-.^ ^ A ;.9XNXfX`.e.+.E g ;X3X:XG.p h 0 u u 7 t > ; 2 $ G [ 8.",
"*.~ x >.i.0XxXzXkX@XR.rXcXMXAXDXDXmX_.) j.9XMXDXbXj.>.>.&.) &.=.=.>./ J x J M @XNXdX`.r.! r L.2X<X%Xv.8 h o u t 7 6 > > O S 1.z.",
"} { v 5.s.eXeXjXbX|.|.rXsXAXDXDXDXqXh.,._.MXDXZXR.-.-.>.y.u.T.W.Q.T.f.~ x ^ v ,.@XNX4XU.E | g *X1X-XV.y Q 0 u u t 6 > : 4 I 1.1.",
"P I $.%.i.`.aXzXbX|.OXbXMXDXDXDXVX@Xw.f.yXDXDX$X,.;.( f._.5XaXMXMXsX5XE.X.~ L ~ f.sXfX>Xr.~ d I.,X-XJ.v.8 h o 7 t 6 > - 2 G S [ ",
"P ` %.=.i.qXtXjXBXXX$XDXDXDXDXSXrX]. .W.nXDXmXg.( ..+.Q.eXVXMX#X_.rXsX9XT.{ `  .) _.gXdXK.^ N s -X,X%XC.x.q 9 u t 6 ; - > Z Z S ",
"L ` *.3.s.rXkXBXsX}.$XDXDXDXAXSXbX@XO.R.bXDXbXw.w.~ ( Q.sXkX].+. ._.eXaX_.5.&.O./ Q.fX2XH.J N s *X,X&XA.v.8 R p t 6 - - - $ S S ",
"L ` *.=.i.yXBXwXrXR.OXAXDXZXDXDXmX#X+.T.lXDXuX<.w.( ] g.@X9Xf.L Y Q.[.5XQ.>.*.X. .E.dX1Xg Y E e ^.,X&XZ.m.y R u t 6 ; - > R ' [ ",
"L P &.$.4.yXaXeXlX}.R.lXMXDXDXDXnX_.O.f.yXSXmXw. .{ { :.OXrX].f.T.].[.[.T.` $.;.0.U.8X*XH.v | e ^.-X%XZ.b.i N d y 1 : ; < E { ~ ",
"` ^ ` ` { ].zXbXzXOXT.eXAXDXDXDXkX].p.i.$XZXZXR.{ <.2.>.R.9XkXrX0XeXeXQ.| F { o.e.(.4X&Xg E R e ^.-X%XA.m.c.e g c.1 < = , ( ` D ",
"&.` ~ J K OXkXkXzX@X<.sXSXDXDXSXnXqX'.a.+XtXVXqXi.<.5.i.i.XX#X0X0X@XW.w.T ~ ^ 9.D.>X4X!.g 0.| s &X-X=XA.B.v.M v.x.1 : = 2 ( ~ c ",
"3.` K x b p.jXkXjXrX&.qXcXMXSXDXDXrXOX4.R.[.zXmXW.[ { ] +.7.k.a.a.,.;.) ~ ~ ..D.~.3X-Xn.9.w.r n.*X-XJ.A.B.d B b.t 1 : = 4 Y z l ",
"&.^ A A A -.qXsXlXzX,.Q.`.7XDXDXDXnX@Xp.O.].0XlXbXT.T ~ L a.l.i.i.w.X.{ ) 9.h !.1X*XM.g q.0.e !.,X&XH.C.m.N a i 1 < < & q Y F c ",
"P A k x J ) W.kXlXvXOX+.).aXBXDXDXZX`.T.T w.].0XsXrXQ.w.~ 5.s.>.:.{ {  .9.K.~.;X*Xn.h 9.+.q u /.,X%XH.C.B B p t < ; - . w ~ E c ",
"S k + x J ^ y.qXzXzXwX+.Q.eXcXDXSXSXkX].g.` R.].9XaXkX0X].Q.Q.R.R.r.e.L.I.~.;X~.n.h | | r 4 F.-X-X%XA.M.B a i t < < & X m  ...E ",
"@ + + A ~ ~ ~ ].jX5XeX[.] 5XcXlXnXDXDXkX+XXXk.R.@X@X0XrXeX9X0X9X).(.U.~.~.~.K.e.| E | r 8 n.-X=XJ.C.b.B e y t 1 < < & 0 M ..<./ ",
"@ @ @ K J x @ E `.5XlXyXq.T.>XaXAXDXDXDXrX_.k.a.g.'.{.[.[.9X5XE.(.).(.U.L.e.| n w r e 3 f *X=X%XC.b.g d 1 y t < < ; 3 M M M u.-.",
"A V x ^ ~ j O + _.zXeXeX9Xd.).kXNXSXDXCXVXyX[.R.p.p.g.Q.]._.U.L.).@X@XW.q.E m d e 4 8 f &X=X=XA.m.d B 3 t t < < = , N y.u.y.u.y.",
"_ H F &.^ j + + q.9XsX5X>X{.R.9XaXaXfXcXDXDXnX0XQ.T.g.f.f.q.0.g.T.|.j.j.u.r.B e 3 u F.&X=X%XH.m.s 0.2 < 7 < = = % 9 u.y.y.u.j.s.",
"} ` L *.;.b + + ! Q.wX5X6XzXOXa.W.).>XhXVXDXDXZXyX5X_.Y.r.9.| f.T.|.$XQ.P.e.u 4 n.&X-X%XC.v.x.u N 2 - 6 6 < =   , N y.y.M M j.j.",
"` ` _ :.7.J / b M ..`.eXaXhXhX_.| r.].9XlXDXAXAXDXSXaX>X(.L.D.K.E. X_.(.U.H.H.^.-X=XA.v.y 5 4 n . * 6 < < = & , q y.y...M M T.j.",
"G 4.8.7.=.l b j M / Q.wXeXsXeX6X{.q.w.OXnXDXMXMXzXgXfXgXcX7X7X7XaXaXsX3X*X*X=XJ.C.v.y 5 . 0 w   , < < < = & & 9 ..q.+.M M -.u.s.",
"G ` 6.:.! b b M -.-.;.W.9X6X5XjXhX6XT.w.R.bXuX X(./.;X2X8X8X8X8XgXNXdX-X&XH.B.p 5 2   4 E 0   2 5 ; ; = % & 3  .+.+...m m M s.y.",
"E ~ >.v x b b / -.) M ! r.).eXhXeXeXeX_.f.u.T.L.L.L.F.G.&X,X2X2XdX*XB.b.v.i < ,   X q R X 2 6 6 < ; ; = < 9 M ...... .l m M y.,.",
"( D Y c J ) M / -.M m v / f.OXwXeXeXeXhXrXE.h [ q.e.D.D.F.F.G.F.v.y t < &   . X O +.0 2 5 7 6 < ; = & 2 q ..+... .E E n m n X.X.",
"] z $ <.y.) v ! / m l v / ..p._.5X5XeXeX>XG.F.~.L.r.r.r.e.h f >       X r M j o X * ; 6 6 < ; ; - & 2 w ..y.y.X./ m R n E c  .M ",
"+.( $ }.l.) n l @ l l m ( .. .+.T.5XwX/.V.V.G.*X;XG.G.~.e.h q O # $ R w 0 X & < : 6 < ; < < - - , 9 M X.t.i.t.X. .c Y c Y m E v ",
"i.Y + .X}.( ../ + + # M / ) ] { O.p.L.V.V.V.G.G.*XG.&X*XF.5 > 5 > ; - 5 ; - ; ; ; : - ; - & < 4 m ..;.y.y.i.t.+.( m Y m E Y ( D ",
"<.Y $ k.k.<.X.) $ + l $ c <.] E ( {  .g M.V.V.F.&XG.&XM.> > ; ; ; - ; ; ; = = = = = = = & 3 N t.,.y.<.t.t.5.<.O.X.Y v D F ~ ( T ",
":.+. .s.t.E m Y $ c c l l :.{ ) X.{ ( T | e.K.!.G.G.p & % > & & = = = = = % = = & %   2 r -.-.;.<.,.<.<.,.X.( ( T ~ Y F F ~ ( ~ ",
"` 5.5.o.^ l c Y l Y ! c @ :.:.X.:.{ Y G G ` ] t.[ q o o > .       * & &     . . . o q ..s.y.E Y { X.:.<.) ~ ~ ~ ~ c D D T { :.2.",
") <.s.( ( D ! ^ ! ! ( c + :.<.X.X.{ G G G 2.3.6.@.W [ %.W _ ] [ :.3._ c j + + l b M / ,.s.i.{ Y z Y ~ ~ c c Y ~ ~ $ z G X.6.6.2.",
"$.3.d.` { ~ ~ ` { ) ( z + ] :.+.:.:._ _ _ a.d.6.1.} ` ' ' I ' 6.8.8.I H C k k x b b M -.>.>.>.! l F ~ F c G { :.} F G ] *.3.3.' ",
"&.>.>.` ` ) ^ ` :.:.` $ + ( o.:.5.3.{ } } d.d.6.2.1.` ' } ' ' 1.1.I C V H K b b b j b -./ -.;.X.~ ] ~ ~ F ] :.6.5.} { ] { } } [ ",
"$.I A ^ ` ` ~ ` :.X._ l + X.X.;.i.2.{ *.` d.d.3.3.1.' ' 1.' ' ' I C V V I =.$.K b j x ^ / -.&.:.{ G A v c A L { *.' ] P P ` 1.2.",
"K K k $.$.$.J L { ` ~ z @ :.{ X.:.*.` { L 6.8.2.6.3.' ' 1.%.' ' H C V V =.=.=.b l j j x -.5.>.{ ( F D D D Z D P :.} _ L W } } 1.",
"K C K ^ *.*.` ~ ~ D ~ c c } ] ( 4.{ ~ A G &.2.2.1.*.2.1.' %.I S C x I I =.7.=.b k j + + d.s.;.) F $ z z z x z A G S P Z S A *.1.",
"b K ^ $.&.&.' ~ L L ~ D c _ T Y { ) T D F { *.:.} %.1.1.1.' I C H K $.$.8.7.=.b k + + j l.l.:.! c z z z z c Z Z S G S Z Z k P _ ",
"x P $.I K ` ` K A J _ F z F G G ) _ ~ F F ~ ` ' ` ' 1.%.' ' P H K %.7.7.8.7.=.x k + + + oX.X;.v z Y L T F D Z Z D S G Z Z S _ _ ",
"C ^ $.J x A ~ ~ S ~ ` F z c Y T { &.{ ~ L L ~ _ ` ` 1.1.' ` H H I 1.8.d.d.=.^ x k j j + oX.X) Y F &.:.{ _ ~ F F F G S S ' %.3.3."
};
