/* XPM */
static char *_584c297ee3f4705c26704fac738f5868cz3e2cJs6REwy7W[] = {
/* columns rows colors chars-per-pixel */
"64 64 200 2 ",
"   c #5E701E",
".  c #6B7A1F",
"X  c #656B25",
"o  c #657325",
"O  c #6A7426",
"+  c #6C7A24",
"@  c #657328",
"#  c #6B7328",
"$  c #6C7B2C",
"%  c #717D25",
"&  c #747C2D",
"*  c #797D2D",
"=  c #6D7730",
"-  c #6E7931",
";  c #737E34",
":  c #7A7D31",
">  c #747E39",
",  c #797F3C",
"<  c #6D8027",
"1  c #6B812C",
"2  c #778225",
"3  c #75832B",
"4  c #7B852C",
"5  c #7C8A2E",
"6  c #6E8432",
"7  c #758334",
"8  c #7B8434",
"9  c #758A34",
"0  c #7C8A33",
"q  c #75833B",
"w  c #7C853B",
"e  c #768C3A",
"r  c #7C8B3B",
"t  c #7E9133",
"y  c #7E913D",
"u  c #748340",
"i  c #7C8542",
"p  c #7D8A44",
"a  c #7E8C4B",
"s  c #7F9342",
"d  c #7F8F50",
"f  c #7F9453",
"g  c #818821",
"h  c #828C2D",
"j  c #898F2D",
"k  c #8B922C",
"l  c #818535",
"z  c #838B34",
"x  c #898D36",
"c  c #82863B",
"v  c #8C853F",
"b  c #848C3C",
"n  c #8A8E3C",
"m  c #839235",
"M  c #8B9335",
"N  c #849837",
"B  c #85933B",
"V  c #8B943C",
"C  c #86993C",
"Z  c #8D9A3D",
"A  c #91953C",
"S  c #929B3D",
"D  c #8CA03F",
"F  c #9AA03E",
"G  c #808743",
"H  c #8D8642",
"J  c #848C43",
"K  c #8B8D42",
"L  c #848D4B",
"P  c #888F4B",
"I  c #928D45",
"U  c #948E4A",
"Y  c #849343",
"T  c #8B9443",
"R  c #869943",
"E  c #8D9A43",
"W  c #85934B",
"Q  c #8C954B",
"!  c #869B4B",
"~  c #8C9A4B",
"^  c #929544",
"/  c #999544",
"(  c #939B44",
")  c #999E45",
"_  c #94954A",
"`  c #9A944D",
"'  c #939B4B",
"]  c #9A9D4D",
"[  c #828F51",
"{  c #859353",
"}  c #8C9553",
"|  c #859856",
" . c #8D9A54",
".. c #849658",
"X. c #8A975A",
"o. c #869A5A",
"O. c #8C9B5B",
"+. c #939653",
"@. c #9A9552",
"#. c #949C53",
"$. c #9B9D52",
"%. c #909658",
"&. c #949D5B",
"*. c #989F5A",
"=. c #A09B4A",
"-. c #A29C55",
";. c #A29D5B",
":. c #8EA145",
">. c #8CA14C",
",. c #94A245",
"<. c #9AA146",
"1. c #9BA346",
"2. c #94A847",
"3. c #95A24B",
"4. c #9AA24A",
"5. c #9AA44A",
"6. c #9BA34C",
"7. c #9EA54F",
"8. c #96A94C",
"9. c #9BAB4D",
"0. c #8EA352",
"q. c #97A152",
"w. c #95A253",
"e. c #9BA354",
"r. c #95A950",
"t. c #9DA953",
"y. c #95A15B",
"u. c #9CA45B",
"i. c #96A95A",
"p. c #9FAA59",
"a. c #9DAA5C",
"s. c #9EB154",
"d. c #9EB158",
"f. c #A0A64D",
"g. c #A2AA4E",
"h. c #A1A554",
"j. c #A2AA54",
"k. c #A3AD56",
"l. c #A9AE55",
"z. c #A2A558",
"x. c #A3A559",
"c. c #A9A159",
"v. c #A3AB5B",
"b. c #A6AA5D",
"n. c #A9AD5C",
"m. c #A5B154",
"M. c #A8B357",
"N. c #A6B15B",
"B. c #AAB35C",
"V. c #AEB85F",
"C. c #B1B755",
"Z. c #B2B75F",
"A. c #B1BA5F",
"S. c #959E61",
"D. c #95A463",
"F. c #9BA562",
"G. c #97A864",
"H. c #9EAB63",
"J. c #9CA669",
"K. c #96AA69",
"L. c #9EAA68",
"P. c #9BB06D",
"I. c #9CB170",
"U. c #A0A761",
"Y. c #A3AC63",
"T. c #AAAE61",
"R. c #A3AC6A",
"E. c #A4B264",
"W. c #ABB262",
"Q. c #AEBA64",
"!. c #A5B169",
"~. c #ABB46B",
"^. c #ACBA6D",
"/. c #B1B564",
"(. c #B3BC64",
"). c #B4BB6A",
"_. c #A4AE71",
"`. c #A5B272",
"'. c #ABB473",
"]. c #ACBB75",
"[. c #AEB67B",
"{. c #B4BC72",
"}. c #BABE72",
"|. c #B4BE7B",
" X c #B8BF7C",
".X c #B7C16B",
"XX c #BCC46D",
"oX c #BCC475",
"OX c #BECC77",
"+X c #BDC87D",
"@X c #C1C46B",
"#X c #C2CE75",
"$X c #C1C578",
"%X c #C6D37B",
"&X c #B5BD82",
"*X c #BAC287",
"=X c #C1CB84",
"-X c #C5D081",
";X c #CCD78C",
":X c #D3E090",
/* pixels */
"~ b b T _ K l c ` ` ` U U -.;.-.@.@.U U U H I H H b H _ ] _ K #.@.T 5.v.N.j.k.5.S V ( A V b l l z n ^ ' _ _ _ ' $.] 7.7.7.1.) 7.",
"b J K Q ` ^ H K ` ` ` I H U @.@.@.@.@.@.@._ P K H w b _ ] ' ' $.e.^ 6.j.B.Q.N.5.V V V ( ^ V l z l ' ] $.' ^ _ ' _ 4.] ] 7.1.) g.",
"J ^ ' $.` ` U U ` ` ` I v U U @.@.` _ @.@._ K v c c c T $.#.e.x.#.^ ( 7.B.A.B.5.S M M S V V x x V e.t.#.Q T Q Q Q q.3.3.4.4.( <.",
"~ $.x.x.$./ / I v ` ` I H @.-.@.$.` @.` U W H l : c c b _ $.b.b.e.^ V ( M..XA.j.<.k S S V V x V ( k.u.] T V T E T q.] 3.6.<.S ,.",
"{.$X/.$.` I H I =.-.c.-.@.` -.@.U _ _ _ _ H : * * : n v ^ 3.4.x.] V A / g.g.<.S A k k M S ( ( ( ] q.] T Y Y T Q ~ E.N.p.p.t.t.,.",
"W.).b.$._ ^ / ` -.-.c.;.-.-.;.-._ _ _ _ _ K l * : l T v ' $.$.h.] A n A g.f.S S S M M A A S ] ,.4.~ ~ Q Y T Q Q T N.H.v.t.w.6.,.",
"e.W.b.c.@.` $.-.-.-.-.$.-.$.@._ _ _ _ $.$._ v 8 : l I V ' ] 4.h.] ^ x A S f.F S S S M M A S ] 4.4.Q T E Q ~ ~ W Y Y.E.a.e.w.w.3.",
"#.b.T./.b.h.c.-.-./ I U ` _ _ I ^ _ ' $.e.] T b v l ^ ^ ] h.e.l.7.) A x A F f.f.F S M M x S ( ) ] ~ ~ ~ #.' ~ Y J a.v.a.e.4.8.w.",
"' $.b.T.T.x.h.` I I K I _ _ Q Q Q _ ' ] e.] ^ n b b _ ( ] h.f.l.h.) A x A ^ ) F ) M M j z M S ( ' ' ~ ] q.#.Q T Y e.a.v.e.e.x.v.",
"Q _ $.b.x.$.` _ K ` / _ _ ] ] ] ] ] ] $.e.q._ n n n ( ] 7.f.] j.7./ A n x A A A M M x x x M V N Z q.] #.e.u._ J J #.u.t.u.t.W.W.",
"K K _ #.$.` K ^ / $.$.$.] ] e.t.4.q.] ] 4.] ' ^ ^ A ) ( ] _ ^ ] / A v x x x x x j V M A V b z x V ] @.#.a.u.~ L J P #.$.q.u.W.v.",
"J T ^ ' #._ K K @.e.b.h.' ] p.x.e.w.#.] $.] ' T ^ K ] ^ ^ A V T V v x x z x x x x A S ) ^ B z z b ~ Q #.k.x.` J p c P _ _ e.v.x.",
"v.v.).W./.e.$.^ $.] ' V T ( ,.,.Z N ^ S S ( ( V T V Q ] ' Q _ ' ^ J w w b x z M A <.<.,.,.( E T b B Y ' q.] R B ^ 8 b Q ' Q ' ] ",
"h.B.).W.n.$.$.` h.] _ ^ ( ( ,.E Z M V V Z ^ ( ( T x T Q _ ' #.] ` W J w b B m M Z 1.,.,.( <.] ' ' T b b T ' T J T 7 b ' ] ~ ' ' ",
"' v.Q.v.q.T $.$.$._ ^ ^ 4.8.,.:.,.N V Z V ^ T V V ( ] e.v.W.^.E.t._ W b b V B V S 1.,.F <.7.e.j.p.T r 0 z b b T Q b K #.u.$.$.e.",
"q.e.p.e.' ^ h.x._ n n ( e.t.5.,.5.( ( ( ( ( ( V b T ^ #.Y.).).T.$.~ T J b B x N ( Z S :.3.3.4.q.e.Y B b 8 8 7 b ' #.' e.e.$.x.v.",
"t.e.q.t.' $.T.v.b 8 b E e.9.5.2.8.3.3.] ,.3.( T B ( ^ x.Q.+XoXW.t._ Q T T V V S 1.M ( 1.3.( E _ ' b B T T n b b K ] ' ] e.h.b.B.",
"] ] ' j.e.v.v.u.: * b ^ 4.5.,.,.,.( ,.,.6.t.9.( T 0 0 b q.N.v.q.T Q T Q T E S D ,.,.9.B.N.t.] ~ ~ b b V ' q.3.T 8 b b ^ e.v.).$X",
"V b Y v.v.v.x.e.+ : T ' ' E E :.Z E E ( 6.t.j.3.E b 0 B ' t.t.' ~ T R B T ( ~ ( E ,.8.j.m.t.3.E Q Y b b E e.h.e.Q z l n ^ h./.@X",
"* 8 l v.E.W.p.e.7 0 ' t.3.Z Z Z N V Z ~ 6.t.t.3.E V b 0 B ' ~ E T T B b B :.3.E m z z B E E V r 8 T J b J ' h.b.W.' K z b n ] x.",
"b 8 B q.W.a.e.i.b ~ w.>.~ Z N N C B Z ~ 2.5.2.~ E ~ Z Z E ~ ,.E E b B b r t.#XZ B 3 5 3 B B ' z 0 T $.T.#.^ t.b.B.e.^ x x ^ ) f.",
"l b T q.t.' #.w.Y ' 3.3.~ V V N N R Z E ~ ( ~ E E ,.,.~ 3.3.3.' E R T B R B.%X5.( 0 0 0 V Z ' y 7 ' v.).t.' e.v./.h.' n b V ^ / ",
") ' T ' ' Y R ~ ! R ! E C N t t m V B Z E Z :.Z E ~ >.3.2.8.6.3.( E E ~ 3.Q.%X5.E E B b E ~ 3.r 3 J x.+X{.n.h.^ ^ n n ) j.h.( n ",
"] e.E 3.~ 8 r Y s B R C N 0 5 t 0 B B B Z ~ 3.,.:.E ( 5.6.w.9.w.3.8.2.,.2.m.Q.~ C ( E E T R B 8 3 T #.W.v.] ' ^ _ ^ V ^ =.) A ^ ",
"j.] B e.' 9 9 9 s R R R y t 5 2 5 5 9 m Z >.8.8.3.E ,.8.8.2.r.8.8.5.,.,.Z ~ E B B V E E B 0 4 0 0 #.' $.T V ] ] j.f.) n n x x =.",
"_ ^ b e.q.y r 7 Y ! :.R C 9 3 3 4 5 5 9 B >.8.8.3.~ 8.t.8.:.8.8.8.3.Z Z 0 B 0 B b B B ~ B r 9 B ~ W.e.$._ T ' ] j.h.) n x x ) Z.",
"<.Q 0 p.t.y y e >.>.>.>.R B t m N C B t N E >.3.>.:.r.8.:.:.,.8.8.2.C m 5 B 5 E Z R B ,.B B r ~ 6.}.b.$.K b I ^ x.l.] b * x f.@X",
"] ^ r p.a.Y y t >.>.0.8.8.2.:.,.8.>.E B C E >.2.:.E >.8.E C :.8.r.t.C m 0 V 0 3.~ B B ~ B R 0 ' 3.' _ h.b.e.] x ^ A ^ A x / g.l.",
"V ( ,.5.5.D D D 8.r.8.d.d.! W #.#.q.J b J ' ' b ' ' ^ ' ~ T Q ' ' T ' T B V V Z ^ M S S Z Z ,.5.5.T ^ 4.) ` / / A =.=.A / A v ) ",
"A ( 4.9.9.2.D 2.8.s.r.d.t.Q T #.} T w w J Q Q w J ~ W ' _ Q T Q T r ' q.~ ^ T N N S S ,.S ( <.g.j.V / ' / ^ / / / =.=./ A A l x ",
"V ( f.j.g.9.g.9.2.2.:.2.>.E Q #.' T b T Q q.~ 8 b b b b b b 8 0 8 b a.B.k.6.5.E N A Z A Z Z ,.q.p.T T ^ U / / / / I A / _ A x V ",
"V S 4.9.9.9.m.9.D N t N B E ' ' Q Q T E ^ 6.^ 0 B T Q V b B b J V Q W.Q.k.7.7.( A V N n V N E ( ] ] ` T n n ` / =.v v ^ ) ] / ) ",
"V V 3.5.,.8.s.2.N N N t N Z ( V z 0 z V ( ( V 2 0 V ( ( V 3.] E T ] v.e.V S 3.] ,.E T T ^ ' ~ ' ' u.q.^ v b ^ ' ` ^ / _ ] h.' V ",
"^ E E ( E 2.2.:.t t N N m Z ( N z z m 3.7.j.3.z B V 4.4.6.B.B.2.' 3.] N 0 b ) 4.t.( ( ,.6.q.] E Q e.$._ J b K _ ] ] ] ] e.$._ b ",
"1.( V B N E Z N t t N t 5 S ,.Z V Z ,.l.j.9.1.m S ( j.5.t..XXXB.m.q.] B 0 V E ,.e.( ] q.x.p.+.L i Q #.#.Q H W _ $.u.u.u.e.' T w ",
"j.^ V z m B y t 5 t :.N 5 Z F Z S ,.,.5.S Z m 4 V m ( V N B.(.l.t.4.' B V E V T 3.,.' e.W.H.#.i , J #.#.#.K Q #.u.*.x.e.#.K 8 * ",
"t.^ z B z N R 0 t t N t Z Z F F Z S ,.S M z 5 h h V x z z k..Xt.j.^ E ' Q E T ^ ' ( ' u.R.;.%.i , G } #.&.}  .i.i.y.y.#.Q J p w ",
"V z 2 9 B E E N N :.C t m N N S M k h 4 2 2 4 5 h B z z z t.Z.5.5.Q ' ~ ^ T T E Q ] #.#.*.%.U L L W } *.#. . .y.y.} ~ W L J W w ",
"z & % 8 B ~ >.B :.R :.y B Z Z ,.M M 5 5 m ( 6.6.t.T Z E ' N.(.v.t.Q ~ _ Q T T T W Q #.e.%.P [ %.%.S.S.D.&. .O.y.y.{ a p a Q  .L ",
": % + z T R B t ! C R N m S ,.m.9.,.M m <.Q.(.V.m.] 3.t.N.).).W.W.' $.#.Q J b w b T +.+.P G L %.%.R.J.&.X.{ } O.y.W a a W &.y.W ",
"* % & N T 9 & $ Y ! R y 9 3.j.XX(.M.5.( j.Q.Q.v.u.#.q.v.^.W.T.Y.u.u.H.U.+.J ; > 8 K +.} G , L %.S._.J.X.{ d d | o.o.0.o.o.y.G. .",
"l h 5 E T 3     9 Y R E E (.(.#XV.j.3.( 3.j.N.j.e.e.x.v.~.v.#.b.u.y.Y.Y.+.J w b J Q Q J i i L %.S._.J.S...{ { ..o.D.K.K.G.G.J.G.",
"_ V b 3.~ 9 o o r e Y >.q.OX.X.X( b b B B E t.u.e.e.u.u.H.#.Q R.Y.Y.'.R.&.P P W K L G G J P } +.S._.S.X.O.O.o.o.o.K.I.P.G.K._.`.",
") ( V 6.q.B - + Y s s ! Y Q.v.N.4 * b T T ] v.v.u._ +.Q #.i G Y.~. X X'.u.Q P J w w w i } &.&. .%.X.....o.O...{ f D.K.D.O.O.I.].",
"_ ( ^ w.N.B ! e s e ! ! W  .u.+., ; T Q W F.R.H.F.&.L L G a , '.[.&X&X|.S.} &.= w > 7 W #.O.O.a ..[ [ [ O.X.[ [ } D.J. .{ { R.'.",
"n j.A.W.t.9 9 9 e f >.f J W +.Q c w W W Q a.U.F.H.&.L G i i > R.'.[.[.[.F.%.U.> = ; q }  .} } a [ [ a a [ { [ } O.S.S.L L L R.R.",
"b ' T.q.Y 0 y R >.0.| Y J W +.#.+._ } W W *.p.&.U.*.Q L G G i *.U.R.R.R.&.*.~.w = i W i.~ W ! a a ..a i a [ {  .&.S.+.p i L F.U.",
"n T e.b 7 Y s ! >.>.s p Y ~ *.U.~.U.#.J K _ +.&.u.&.+.%.%.%.P %.+.%.S.S.S.*.F.i > #.u.H. .}  .p u ..a a { } X. .O.X.{ i i L F.F.",
"Q c J w Y ~ J ! >.a p e W  .u.T.{.T.+.J J J J #.#.$.*.y.*.+.#.J J } *.u.!.u.Q $ q `.^.`.i.O.y.W > [ i L } y.y. .} W P i i p &.} ",
"' , & u.v.! r a  .e q r W w.+.u.Y.Y.#.J J w J #.#.p.v.u.*.W Q , J } y.H.|.F.w o 7 .X^.^.u.i.L.W > u a [ O.F.F.#.} i L i G p Q L ",
"u.W ; *X*XQ w e $ q 9 p Q  .~ ' #.t.Q T Q b Y #.#.u.v.*.' J K & G T u.p.).w.r o 6 E.H.E.H.H.!. .G L P &.u.R.F.&.{ w J w J w W b ",
"n.W X ;X=XQ  .W @ $ - p W ~ _ } #.] Q #.' K ' e.$.e.v.*.Q J J # c Q e.' u.T r & q w.w.H.a.R.!.y. . .&.F.L.U.H.#.Q G J i P J Q G ",
"u.G > {.{.u.#.Q ; $ ; q 8 u.' J W ' _ ' ' ' T W.e.] v.e.^ T b & 8 ( V ^ ( z 7 e e Y ! w.i.H.E.F.q.H.u.p.H.H.u.#.#.J w c b T T J ",
"#.*.Q ~.H.L p J - r w q 7 u.#.~ #.' Q T T Q T x.' Y e.e.] ] T l l T z z 0 3 $ 7 r y ! H.E.a.q.#.u.u.u.u.u.#._ Q T T J b K T _ Q ",
"' x.b.e.Q 7 8 J 8 J Y 8 ; e.e.#.e.' T b b ' ^ j.^ z ( 6.3.4.( T ( g.V h 3 . + 9 y y ! H.^.H.Q J #.#.u.u.' T W T T w c c K ] e.e.",
"( u.^.Q _ r J Q T Y T 8 $ e.u.$.#.] n b n h.j.b.] T ] 3.3.] 4.t.B.(.5.M 5 < 1 9 s R ! i.E.E.#.b 7 b T K w 8 J T Y : 8 K ' j.n.x.",
",.j.).^ ' T T ' ' ~ Q 8 # ' u.#.e.e.^ ^ ^ V.A.B.f.] ] ) ) ^ =.l.Z.C.S k j 4 3 m y y ! 0.i.i.e.Y > b J K c b ' h.] n n _ <.j.x.) ",
",.2.v.^ ^ E E ' e.e.' : O ^ $.u.U.j.] ] ] (.).n.h.f.( ) <.<.<.f.g.S j h M B y y y 9 s >.E ~ q.#.T ^ Q T J _ e.b.b.] ' _ ] ] ] ] ",
",.E m ( ( ,.V ( t.#.^ 7 $ ' ' q.v.h.] ) ^ /.(.j.j.f.^ <.f.) ) ) A k g k :.2.:.N e 1 e R ! ~ q.q.] b z 8 8 b T ( ] ] ( V A _ =.h.",
"Z C 3 ,.( ,.V B ' _ T 7 & e.#. .u.7.^ ( V n./.f.l.l.( <.g.<.) ) M k g k <.9.2.:.9 $ 6 s #.p.u.' Q b b c z l z ^ e.] ^ V A ) 7.h.",
"k m V ( 6.6.( T T b T 8 w #.' K e.' T b B ] h.j.7.7.h.f.<.F S M x h A Z m.M.N.y 9 + $ $ ^.^.e.Q b 7 : 8 8 8 8 l b n A l b l =.f.",
"N Z Z ( 4.4.] T V K T b 8 ^ T H #._ K b b ' 4.7.4.) f.f.f.) A k x M ] 4.B.M.t.0 3 + $ $ +XoXq.Y 8 8 c l l 8 8 l b x b h l 4 A ) ",
"h S ( ( V T ( T z n E b 8 b J b Q E T b b T ( ] ( ) f.5.<.<.A x A ( l.M.Q.m.1.9 3 + $ $ ;X-Xq.r 8 B B K b b l l x n x l l z ^ ^ ",
"m ( ^ N h z V T z T ^ K 8 c b T ] ' ' T V V T ^ ( ) f.f.=.S M M S f.A.(.A.m.~ 5 3 + 3 + :X-X~ J b #.e.] ^ T b b z n n n ) =.g.j."
};
