/* XPM */
static char *e9ba2902b15c4c79f92c1f2c9f47708bGn80fEfUknMzg9nG[] = {
/* columns rows colors chars-per-pixel */
"64 64 231 2 ",
"   c None",
".  c #1C0C10",
"X  c #261716",
"o  c #30221D",
"O  c #332523",
"+  c #362926",
"@  c #3B2A24",
"#  c #3A2D29",
"$  c #3E312E",
"%  c #3F3531",
"&  c #49352D",
"*  c #4B3B33",
"=  c #453936",
"-  c #523D34",
";  c #50382B",
":  c #4A443B",
">  c #5D4637",
",  c #52453C",
"<  c #5C4539",
"1  c #5D493B",
"2  c #564338",
"3  c #634C3D",
"4  c #6A513E",
"5  c #64523F",
"6  c #775237",
"7  c #4D4D43",
"8  c #534D43",
"9  c #5C4E45",
"0  c #584C4B",
"q  c #545549",
"w  c #5C544C",
"e  c #5A5649",
"r  c #655343",
"t  c #6B5443",
"y  c #685848",
"u  c #735D46",
"i  c #725F4D",
"p  c #6B5D57",
"a  c #715F52",
"s  c #72614D",
"d  c #7C614A",
"f  c #666554",
"g  c #686656",
"h  c #6C695A",
"j  c #7A6551",
"k  c #74645A",
"l  c #716D5E",
"z  c #796855",
"x  c #695C6B",
"c  c #757461",
"v  c #7D7C67",
"b  c #756F6B",
"n  c #866749",
"m  c #836C53",
"M  c #856F57",
"N  c #8C7154",
"B  c #86735D",
"V  c #8E775D",
"C  c #947654",
"Z  c #9B7955",
"A  c #967B5C",
"S  c #9C7D5B",
"D  c #93704E",
"F  c #A37D5A",
"G  c #AB7D52",
"H  c #825E61",
"J  c #867766",
"K  c #927E6A",
"L  c #957B63",
"P  c #877D76",
"I  c #947D73",
"U  c #9D805E",
"Y  c #A3825B",
"T  c #A9865F",
"R  c #B38A5E",
"E  c #83826C",
"W  c #87876D",
"Q  c #9A8163",
"!  c #9A886D",
"~  c #868370",
"^  c #8A8473",
"/  c #8C8B75",
"(  c #988977",
")  c #989B7D",
"_  c #94957A",
"`  c #A58966",
"'  c #AB8A63",
"]  c #A78C6B",
"[  c #A48868",
"{  c #AE916C",
"}  c #AE9064",
"|  c #B4946B",
" . c #B9966B",
".. c #BA996D",
"X. c #B29166",
"o. c #A58E75",
"O. c #AC9373",
"+. c #AB9579",
"@. c #A4927B",
"#. c #BC9D73",
"$. c #B49C7A",
"%. c #B69A77",
"&. c #BCA27C",
"*. c #BEA073",
"=. c #C19D73",
"-. c #C48A64",
";. c #C2A375",
":. c #C3A57A",
">. c #C6A87C",
",. c #CAAC7D",
"<. c #CFB07D",
"1. c #D1B27F",
"2. c #9D968A",
"3. c #9D9895",
"4. c #A19483",
"5. c #AD9D83",
"6. c #A59C8A",
"7. c #B29E87",
"8. c #A49D97",
"9. c #ACA38F",
"0. c #B5A083",
"q. c #BEAA8D",
"w. c #BBA687",
"e. c #ABA39C",
"r. c #B4A694",
"t. c #B9AE9A",
"y. c #B8AA96",
"u. c #ADA8A4",
"i. c #B2ACA6",
"p. c #B5ADA8",
"a. c #BBB2A7",
"s. c #BBB6B3",
"d. c #BEB9B7",
"f. c #C3AB84",
"g. c #CCAE81",
"h. c #C2AD8B",
"j. c #C6AB86",
"k. c #C7B18C",
"l. c #CCB48C",
"z. c #C9B083",
"x. c #D2B484",
"c. c #D5B88A",
"v. c #C1AE92",
"b. c #C0AF99",
"n. c #C4B59C",
"m. c #C9B79A",
"M. c #CCB99A",
"N. c #C9B693",
"B. c #D3BC94",
"V. c #DABE92",
"C. c #D2BE9A",
"Z. c #CABFAD",
"A. c #C5B8A8",
"S. c #C7BDB2",
"D. c #D2BFA0",
"F. c #D6C29C",
"G. c #DAC59C",
"H. c #DBC699",
"J. c #E3CA97",
"K. c #F6DC9D",
"L. c #D5C3A4",
"P. c #DBC6A3",
"I. c #DDC9A4",
"U. c #DBCBAB",
"Y. c #D7C9AF",
"T. c #CDC4BB",
"R. c #C9C1B6",
"E. c #D2C8BD",
"W. c #D6CAB6",
"Q. c #DFD4BE",
"!. c #CDC1AB",
"~. c #E2CDA5",
"^. c #E0CCA8",
"/. c #E5D2A6",
"(. c #E4D2AC",
"). c #E8D7AE",
"_. c #ECD9AB",
"`. c #F3DBA1",
"'. c #E4D4B4",
"]. c #E9D6B3",
"[. c #ECDBB4",
"{. c #EBDDBC",
"}. c #E5D8B9",
"|. c #F1DEBA",
" X c #F0DFB4",
".X c #F9E2A7",
"XX c #F3E1BC",
"oX c #FAE6B2",
"OX c #CBC7C3",
"+X c #CEC9C4",
"@X c #CDCCCA",
"#X c #D3CCC4",
"$X c #D2CDC9",
"%X c #D6D0CA",
"&X c #DBD4CB",
"*X c #DCD4C6",
"=X c #D5D4D2",
"-X c #DAD6D3",
";X c #DCD9D6",
":X c #E5D9C7",
">X c #E3DED7",
",X c #E0DDD9",
"<X c #EDE1C4",
"1X c #E9E0CB",
"2X c #F5E5C4",
"3X c #F9E6C4",
"4X c #FBE8C5",
"5X c #F9E7C9",
"6X c #F5EBCD",
"7X c #FBEBCB",
"8X c #F2E7CA",
"9X c #E5E1DC",
"0X c #EAE5D8",
"qX c #FCEFD1",
"wX c #F3E9D0",
"eX c #FDF1D2",
"rX c #FAF2DB",
"tX c #FFF9DE",
"yX c #FFF0CA",
"uX c #E3E2E2",
"iX c #ECEBEC",
"pX c #EAE8E4",
"aX c #F1EFEA",
"sX c #FDF7E1",
"dX c #FFFBE4",
"fX c #F4F2EE",
"gX c #F3F3F3",
"hX c #F7F8F9",
"jX c #FDFDFD",
"kX c #F7F7F7",
"lX c #EFEFF1",
/* pixels */
"                                                                                                                                ",
"                                                                                                                                ",
"                                                                                                                                ",
"                                                                                                                                ",
"                                                                                                                                ",
"                                                    jXuX%X*Xn.k.M.Y.#X                                                          ",
"                                          uXA.Q.W.W.}.'.].|.XX3X4XXX/.M.E.                                                      ",
"                                          jXT.h.XX4X3X4X7X3X3X3X2XXX[.XXG.Z.                                                    ",
"                                          a.m.XX3XXX3X3XXXXX3X3XXXXX[.).[.H.R.                                                  ",
"                                          E.F.3X].3X3X3X[.XX3XXXXX[.[._.G./.k.                                                  ",
"                                          5.P.|.].3X|.3X'.2X2XXX[././.).l.H.c.                                                  ",
"                                          A.].G.|.XX].3X^. XXX[.]./.H.G.>.>.c.v.                                                ",
"                                          L./.l. X].~.XXF.]. X/.I.H.V.,.,.:.1.>.                                                ",
"                                          G.V.w. X~.F._.x.P.).B.,.c.V.>.| ,.<.=.%X                                              ",
"                                          B.#.#./.H.z.H.:.j.J.>.| #.g.;.' ,.<.;.t.                                              ",
"                                          k.F #.J.g.| <.#.#.x.;.*.,.>.| ' :.,.:.0.                                              ",
"                                          q.A ..c.;. ...;.V.g.>.B.>.L j L >.:.X.T.                                              ",
"                                          T.I | x.| ( J 4 7.).B.(.t.O 0 A.X. .[ +X                                              ",
"                                          iXuX+.=.` #X$X. @.eX3X5X:X3 z $X#. .A.                                                ",
"                                              -X7.k.:Xn.6 0.eX7XqXL.F w.wXV. .-X                                                ",
"                                                =XF.5X:XB.'.6X3X5X5X<X5X5X$.+.                                                  ",
"                                                  @.^.qXqX6X7X3X5X2X7XqXB.r.                                                    ",
"                                                  ;X%.B.3X7X4X8X5X5X2Xj.F &X                                                    ",
"                                                    r.y.%.j.F.I.D.%.' O.6.                                                      ",
"                                                    @XjXA.T ..' X.=.Z T.=X                                                      ",
"                                                    jX;Xv.G.F.q.l.x.&.L ;X                                                      ",
"                                                    uX5.q.F.I.H.l.l.#.[ q.                                                      ",
"                                                    Z.}.U.&.z ! B.f.k.B $.S.                                                    ",
"                                                    n.Y.L.j.d 9 D.V.D.4.N v.                                                    ",
"                                                  -XD.U.M.{ 4 8 4.G x b 9 A.                                                    ",
"                                                  iXA.(.$.A 4 s P I H L l d.hX        gX                                        ",
"                                                  $Xm.'.~.! A ! b 4.X.-.q.v gXgXgX+XP k ^                                       ",
"                                                uXY.'.h.h.j %.N.9 j.~.^.V.2 3.iXs.t ; ; @ d.                                    ",
"                                                +X{.6XC.s , $.+.* j.w.N Q & J v.> 3 - < @ u.                                    ",
"                                              gXR.h.L.O., , 9 ; - N C 3 ; o $.N.3 < < 3 O S.                                    ",
"                                      iXhXhXgXlXS.m.w.] u < { +.9 K 7.C @.4.J k.- < < @ &                                       ",
"                                      jX#Xn.jXgX}.eX(.B.s O 3 O.1 ( [.[.{.C.s | j z 9 p                                         ",
"                                        M.z.3.T.:XqXP.N.& O & 2 9 L D.'.:XC.r k #XpXgX                                          ",
"                                        &X9.E ( m.U.F.+.; a a t t t t z j 4 3 9 uXjX                                            ",
"                                          uXu.n.2XL.O.2 V 7X|.j.n t t t t t < @ d.                                              ",
"                                          kXs.v.7X{.o.- K oX`.=.D M d r 5 > & & 8.                                              ",
"                                          jX^ s M.C.L 9 k..X1.R 3 t.wXY.!.r.k B w.                                              ",
"                                          =Xh O - m r B `.K.| c.B K {.tXdXtX5.s 0.-X                                            ",
"                                          3.f O O * 9 S `.x. .J.:X9XY.<XrXdX@.s t 3.                                            ",
"                                        uX_ f o $ = r J.K.| R *.E.fXfX0X9X6X( @ ; l kX                                          ",
"                                        i.W e O $ 2 { K.K.F G { 9.S.9XfXfX0Xe.@ 3 2 =X                                          ",
"                                      kX/ / 7 O = < L `._.F 6 r 6.A.S.#X9XfXfX#XI @ 3.                                          ",
"                                      OX/ W : @ = - j j.).n 4 % w R.T.T.R.#X0XjXjXd.3.                                          ",
"                                      2._ E : + % 7 7.<X<XN.] z w wX0XW.S.T.OX,XkXjXjX=X                                        ",
"                                    ,XW ) v : # : z N.qX8XeXF.y l rXqX^.8XE.#X%X&X9XkXjXgX                                      ",
"                                    i.W ) c : + 8 f.O.H.{.[.&.y ^ dX'.'.dX}.+.6.&X&X*XpXjXjX                                    ",
"                                  hX6._ ) h : o M I.%.O.$.| U 8 2.eXB.8XsX].V @ k i.&X&X>XpXjX                                  ",
"                                  uXW _ ) h : + O.{.'.w.+.O.L 8 r.I.H.rXsX(.m @ # $ p d.&X-X;XaXjX                              ",
"                                  a.E / ) f : 1 ' }.6X<X'.C.C 7 t.l.'.rXrX].u = 6.p $ 0 i.R.*X&X>XkXkX                          ",
"                                  2.c W ) f , N Z N.7X8X3X&.u 8 @.#.8XdXsXh.n j hXjX8.# d.uX    &X9X9X$X                        ",
"                                  _ f W ) f q N C F F.6X}.U 2.-XuXr g $.! S ] [ 6.jXi.o p.        %X+XiX                        ",
"                                  E e v ) f q N U A O.q.k.C ;XhX9XM X L &.` A ` U Z.8.#                                         ",
"                                    : c ) g q m T T '.}.o.K kXiX&XN * {.U.] ' ` ` Q h w                                         ",
"                                      g ) h q s Z D $.P.j.4.hXjXpXK z ).q.<X$.n U | j u.                                        ",
"                                        c l q s Y Z w.m.S i.hXjX      0.&.(.M.B.#.f.' S.                                        ",
"                                        u.e : y Z D O.q.D T.jX                                                                  ",
"                                          U 9.6.B.h.I.h.n +X                                                                    ",
"                                          A.U.[.<X{.U.f.K                                                                       ",
"                                                                                                                                "
};
