/* XPM */
static char *cedcd8c1ba7844a7d3cc95e4472f6cc8MfxvDdtKKLtmhMNZ[] = {
/* columns rows colors chars-per-pixel */
"64 64 242 2 ",
"   c #181C0C",
".  c #1D230F",
"X  c #1D2A11",
"o  c #262815",
"O  c #2A2B16",
"+  c #2A3614",
"@  c #2E3C1B",
"#  c #363818",
"$  c #313F1B",
"%  c #2F3C23",
"&  c #323E22",
"*  c #2F441E",
"=  c #344416",
"-  c #394212",
";  c #3A4B16",
":  c #35441C",
">  c #39461C",
",  c #364A1D",
"<  c #3B4C1D",
"1  c #3D5217",
"2  c #3D521C",
"3  c #364421",
"4  c #394622",
"5  c #354922",
"6  c #3C4C22",
"7  c #3E4C29",
"8  c #3D5222",
"9  c #444D1D",
"0  c #425416",
"q  c #43541C",
"w  c #445A1D",
"e  c #485A18",
"r  c #4A5D1C",
"t  c #505C1F",
"y  c #4D6617",
"u  c #47611B",
"i  c #4C631D",
"p  c #4F691D",
"a  c #526817",
"s  c #52651D",
"d  c #546B1C",
"f  c #596E1D",
"g  c #56721D",
"h  c #5B741D",
"j  c #5D791D",
"k  c #647B1E",
"l  c #627C1D",
"z  c #414E22",
"x  c #474B28",
"c  c #594C2E",
"v  c #435423",
"b  c #4A5623",
"n  c #455B23",
"m  c #4A5C23",
"M  c #445429",
"N  c #475B28",
"B  c #4C5C29",
"V  c #515D26",
"C  c #55562B",
"Z  c #525E2A",
"A  c #4D5B30",
"S  c #585931",
"D  c #665A36",
"F  c #715F3C",
"G  c #4D6322",
"H  c #486425",
"J  c #4E6922",
"K  c #4E622A",
"L  c #526523",
"P  c #596426",
"I  c #546B23",
"U  c #596D24",
"Y  c #53632B",
"T  c #5A642E",
"R  c #546B2A",
"E  c #5B6C2B",
"W  c #567223",
"Q  c #5B7423",
"!  c #5D7923",
"~  c #56752B",
"^  c #5D742A",
"/  c #5D7A2C",
"(  c #556232",
")  c #5B6932",
"_  c #5B7A33",
"`  c #616C29",
"'  c #617525",
"]  c #6A7426",
"[  c #637C23",
"{  c #6B7B24",
"}  c #63742B",
"|  c #6A752B",
" . c #647B2A",
".. c #6B7C2C",
"X. c #777D2A",
"o. c #737D2C",
"O. c #616D31",
"+. c #67653A",
"@. c #647433",
"#. c #6A7532",
"$. c #647C31",
"%. c #6C7B33",
"&. c #697939",
"*. c #737E34",
"=. c #71773B",
"-. c #737D38",
";. c #776544",
":. c #6D7C42",
">. c #727F44",
",. c #6B851D",
"<. c #76931A",
"1. c #638223",
"2. c #6A8324",
"3. c #6E8924",
"4. c #66812A",
"5. c #6C832B",
"6. c #6C892E",
"7. c #73842C",
"8. c #7C842E",
"9. c #778C28",
"0. c #748A2D",
"q. c #7A9324",
"w. c #789329",
"e. c #7B932E",
"r. c #648333",
"t. c #6C8433",
"y. c #6A8538",
"u. c #738434",
"i. c #7B8434",
"p. c #748C32",
"a. c #7B8B34",
"s. c #73843A",
"d. c #7B853B",
"f. c #748B3B",
"g. c #7B8B3C",
"h. c #7C9333",
"j. c #7F9835",
"k. c #7D923D",
"l. c #7E8A43",
"z. c #7A8846",
"x. c #7D9443",
"c. c #7A8B53",
"v. c #81971A",
"b. c #829929",
"n. c #828635",
"m. c #838B35",
"M. c #898E34",
"N. c #82873C",
"B. c #8C853F",
"V. c #848C3C",
"C. c #898E3B",
"Z. c #839434",
"A. c #8B9235",
"S. c #859B34",
"D. c #83933C",
"F. c #8B933D",
"G. c #859D38",
"H. c #8C9A3C",
"J. c #90963B",
"K. c #92993D",
"L. c #8CA139",
"P. c #97AB3D",
"I. c #848C43",
"U. c #8C8D43",
"Y. c #888944",
"T. c #838E4B",
"R. c #928D45",
"E. c #948E4A",
"W. c #849243",
"Q. c #8C9443",
"!. c #849945",
"~. c #8E9A43",
"^. c #85924C",
"/. c #8C954A",
"(. c #859B49",
"). c #8C994B",
"_. c #929544",
"`. c #939B44",
"'. c #999E45",
"]. c #94944A",
"[. c #9A944D",
"{. c #949B4C",
"}. c #9A9D4D",
"|. c #849554",
" X c #8B9652",
".X c #8D9B54",
"XX c #869A58",
"oX c #8B9C5A",
"OX c #9A9552",
"+X c #959D52",
"@X c #9C9C52",
"#X c #949A58",
"$X c #A29C55",
"%X c #A29D5B",
"&X c #8DA141",
"*X c #8BA04E",
"=X c #94A145",
"-X c #9CA246",
";X c #96A24B",
":X c #9BA24C",
">X c #95A948",
",X c #98AE4C",
"<X c #9CAC4D",
"1X c #96A152",
"2X c #9BA353",
"3X c #9CA954",
"4X c #95A25B",
"5X c #9CA459",
"6X c #9EA959",
"7X c #A1A64E",
"8X c #A3AC4F",
"9X c #A2A555",
"0X c #AAA757",
"qX c #A3AA54",
"wX c #A3A459",
"eX c #A3AB5B",
"rX c #A9AE5D",
"tX c #A6B15C",
"yX c #A9B35A",
"uX c #B2B85F",
"iX c #8C9566",
"pX c #94A563",
"aX c #99A866",
"sX c #9CB16F",
"dX c #A2AC62",
"fX c #ABAE62",
"gX c #A1AC69",
"hX c #ACB362",
"jX c #ABB569",
"kX c #B1B564",
"lX c #B3BB63",
"zX c #B5BB6A",
"xX c #A7B473",
"cX c #B4BC73",
"vX c #BCC16F",
"bX c #BCC679",
"nX c #C1C572",
"mX c #738882",
"MX c #B2BCA5",
"NX c #C1CB84",
"BX c #C8D486",
"VX c #D3E090",
/* pixels */
").V.V.W._.U.n.N.E.[.[.[.R.$X%XOXOX].E.E.E.E.U.Y.Y.N.Y._.[./.Q.{.+XQ.;XqXtX6XqX<XH.F.`.H.F.C.n.n.n.C._.].].].{.{.{.}.:X:X2X:X-X7X",
"V.I.U.].[._.U.R.[.[.[.R.B.[.OXOXOXOXOXOXOX].U.=.T E } =.I.I./.].+X`.1XqXyXlXtX-XH.F.F.`._.C.m.n.n.{.{.@X{.].].{.[.:X}.:X7X:XP.-X",
"I._.{.@X[.[.J.[.[.[.[.B.B.E.OXOXOXOXOX].]./.Y.=.R L B b U L b E &.d.Q.:XyXlXyX<XK.A.A.K.F.C.M.C.A.2X6X2X_.Q././.Q.:X{.;X:X-X`.-X",
").2XwXwX$X[.R.R.B.[.[.R.E.E.$XOX@X].[.[.E.Y.E  .^ m B L E v n u n v L =.2XuXuX8X-XA.H.K.H.F.M.F.`.eX6X{.W.W.Q./.).1X{.;X:X=X`.'.",
"cXnXkX@X[.R.B.R.[.$X0X$X[.OX$XOXE.Q.].E.I.) u h d E G R M < v w 8 J w b L -.g.M.A.M.A.A.K.`.`.{.`.1X{.Q.W.W.Q./.).tXtX6X6X6X<X=X",
"hXzXfX@X]._.E.[.$X$X%X$X$X$X$X$X].].].Y.Y H ! W H 2 J J E U d r L 8 q i b q < v E ..A.A.J.`.-X=X;X{.{.Q.Q.!.!./.(.dXdX6X3X1X2X=X",
"4XfXrXwXOX[.$X$X$X$X$X@X@X@XOXE.].].^.) 5 2 J H J / [ J U R q L ! q n < ; d L = ; 9 L | i.H.=X-X:X/./././.)././.W.dXdXtX1X;X;X;X",
"{.fXfXfXwXwX9XwX$X[.R.].[.[.].E.E.Q.@.H 8 H I p i I  .u p p.} n u U e < r r U r 9 < ; w B _ g.`.;X).).).{.+X/.W.I.6XdX6X1X;X3X1X",
"{.@XfXfXrXwX9X[.R.R.F.R.].]._./.Q.d. ./ K n L W J w I b L E %.Y q s r , w 0 0 ; > $ 1 0 u H s.`.`.{.{.+X1X@X].T.W.4X6XeX1X2XeXeX",
"/./.@XwXwX}.[.].R.'.].].].}.@X{.{.&.t.L v < 8 6 > ~ 4.b Y %. .Z 7 m U w 2 2 m r m q - 0 8 8 u.F.~.1X+X+X1X4X{.W.U.{.5X5X5X6XhXyX",
"U.U.].+X@X{.U.U.].[.9X@X}.{.2X6X1X%.{ r L L J < <  . .L ] p.t B J u [ d e 2 w p G 2 q e H R y.M.F.{.{.+XwX5X].I.Y.T.+X@X+X5XhXfX",
"I.Q.].{.@X].U._.[.9X9XwX@X2X2XqX1Xu.Q } ..Q I ..u i Q m q f m R ^ J r U d i 8 N H H ~ ~ r.r.s.m.V.{.].+XeX5X{.Y.Y.g.E./.{.@XeX6X",
"eXeXzXhXlX2X@X/.@X}.]._.Q.`.=X=XS.E ^ E a.} a.9.U Q ^ G e s m R L m : b d L m L ~ / r.r.r.$.f.x.V.W.W.{.2X{.F.W./.i.V./.{./.].{.",
"eXrXcXhXrXOX@X[.9X'.].F.`.`.=XH.f.4.j u i T ..f L L u d [ r 6 L s 5 6 3 L W m w m J R y.s.y.f.x.~.Q.V.V./.`.Q.W.Q.i.V./.{.{.{.{.",
"{.eXyXeX2XQ.2X@X@X]._.`.;X>X>XD.r.j.5.~ ~ ^ g J w p / h  .6 < i L B J < 5 m s $ > w ; i  .s.x.z.!.!.g.a.d.V.V.W./.V.Q.@X5X@X1X2X",
"2X2X6X3X_._.wX9X].W.C./.2X3X&Xy._ ! / U d R p J W Q w e r b r i n J W i H q U 4 > = < 2 < 8 R y.f.t.k.V.a.i.i.V.{.}.{.2X2X@XwXeX",
"2X2X1X2X{.2XfXeXC.d.d.D.:X!.y._ _ ~ ^ ` ' 2 v L R 2 < 2 U  .4.s , W J w q i ! > v m q ; q ; = ; ^ D.W.f.W.V.V.C.U.{.{.}.@X9XeXhX",
"'.{.{.qX2XeXdX9Xo.X.i.W.f.r.R ~ W W B %.' 8 v v < r 2 8 J d  .b , J J L B m r r 0 f q 0 ; > n r = m t.$.s.2X;XW.n.V.N._.:XeXzXnX",
"Q.F.I.eXeXeX5X2X] i.x.f./ / G u J R 7 6 ^ N 5 v R d s 7.W L d m w J Q ] r r q e > L r ; q w > 0 m v t ~ f.+XeX2X/.V.n.C.`.wXkXvX",
"X.i.m.eXhXhX2X2Xi.d.f.6.[ ^ K n 2 ! J J U i L } ' L } S.{ 4.g U p W [ L ; w d 0 3 w e q R s 2 @ < r Y 9 ! Q.wXeXhX{.C.C.V.C.:XwX",
"C.i.D.1XhX6X4X3Xk.).r.1.q...B A 8 n U 3.j Q } E a.%.#.a.! W [ u u u g w U  .l L & 9 q J U e 2 @ > 2 ; m U V.3XeXrX9X].m.m.J.}.7X",
"n.C.W.1X6X{.1X1XQ.).r.4.j.t.L n 8 : J w.5.m } E ^ U Z } J 2 L ! i n ^ g h E s r q q w ^ 0 e e 9 5 + = m ] f.).qXkX9X`.C.C.C._.'.",
"'.{.Q.{.{.W.!.).(.k.r.4.} h.7.m B G G 5.} Y } [ y f R } i y ! / v : L ! h L m L i [ L < q m f s < 9 B } h.f.D.Q._.C.C.'.0X9X].C.",
":X@X~.1X~.i.g.x.x.z.$.e.0.e.e.Q L 0.d [ U ..w f [ d L E J [ Q i < 4 , w U ] B 9 q f r ; e U v ; ; 0  .f.D.H.D.l.Q.F.F._.}.'.J.K.",
"9X{.W.2X{.a.u.a.k.x./ w.e.f ,.<. .4.2.u / U U / [ Q ! U G g / q 6 < v m r ` q V n s r r 0 r q q b ; 0 m @.*.s.s.D.D./.F.M.M.M.-X",
"_._.m.3X1Xg.g.u.x.x.r.[ <.' d g w.5.^ u I p 2.l 2.u H J n G R & i J I p.Q d N A ^ m R L = : M q v & $ v L ; ; R $.$.g.M.M.C.'.kX",
"}./.a.6X3Xx.k.f.*Xx.z.r.3.2.! 3.b.5.w.! ! h l ,.g 2 2 8 n n 6 > p J Q 9.7.! q 4 E G ; r 4 & : $ = 2 < : 0 b G r U 0 m | 8.M.7XnX",
"-X_.g.eX6XW.D.p.*X(.y./ q.,.%.r e.e.[ d l i G 6.W 2 8 6 v 4 : L [ d Z V.] f E r z Q Y r 0 & z ; 6 > ; 0 @ * < ; n ; m V B.K.7X0X",
"J.`.=X>X-XL.G.=X,X,Xf.h.e.2.! R d L n Q j J n I j 4.L n 7 5 J  .} #.E O...r r i ; m U s e @ z G r v ; r ; : @ > 1 = V ` J.K.B.'.",
"F.`.:X<X<X>X=X,X,X,Xf.5.w.L.[ i W  .,.1.g ! J p j 6.I u z v p } Y V.7.9 V P q d q > L G I i > Y r e < = ; = @ $ = # ; Z B.A.n.M.",
"J.`.:XqXqX<X<X,X>X&Xu.6.2.g G I G Q j 2 q R R J / f Q ^ r r w  .O.E B i q O.U e > 3 > q 6 0 < < L s < : q q : & + > 9 *.[.J.M.F.",
"F.K.:X<X<X<X8X,X&Xk.h.S.0.4.J n 2 t.! 2 5 r r L Y G ,.[ U Q i b ] f L L f I g d 6 & z q q s v : v E : r L e i z = v #.J.'.[.'.'.",
"F.~.`.>X=X,X3X>XS.h.3.2.^ W L b P  .g 8 7 6 R q : z h k a.u.E x ^ h d s e U 7.6.G 3 $ G d r = 4 = u 1 2 s i s ; < ` U.].}.2X{.F.",
"`.`.`.~.~.=X,X&Xj.p.p.g i  .5.@.g.u.5.R M M 5 , n r U 5.0...@.Y $.5.s w w d { Q w 2 b L d f M $ 4 q 1 N U s 0 0 E U.}.@X9X2X].n.",
"'.`.Q.F.F.~.H.S.p.[ I p ! y.K & Y E t.J v 3 6 R } k I L 5.5.' E W [ ! u i u e L r i  .} [ 2.L < * , 2 W  .i v C T.5X5X9X@X{.W.N.",
"qX~.D.a.D.S.Z.a.4.R J j j / G 8 7 v W L v n f ..| ' g P a.a.{ 5.~ w G J 4.g 2 n R d h d s s q ; u G 2 q m r b =.#X@X5X5X+XC.i.i.",
"-X`.m.V.V.D.D.4.J R ~ J n n Q I  .! 3.p Q L E O.Z g.Z.` -.D.' G 8 2 2 W p.R * * 6 r f d e r L q s Z C q q q A T.5X4X4X#X XW.I.d.",
"Q.m.7.a.D.D.4.7. .R v 6 n H J 6. .[ l U Q i 4.@.O.!.0.R Z u.] 6 H g g h ! p , 2 & < 0 m r r m q m V x b m b @..X4X X).^.T.I.T.d.",
"M.X.{ 8.D.p.h g L ( ( ( N 8 u n G 5.e.p.| q E #.E n s i r O.E v p g j 1./ ~ 2 8 3 z r m V s r m C C 9 b q Z >.#XpX^.z.z.l. X.XT.",
"8.{ { m.D.w.1.! p.Y K ) A 5 n 6 8 ..h...^ x ^ { k y e l i @.&.u u H [ g / W , 2 w q ..{ a q d ^ t b z b C Z >..X4X^.|.x.^.#X#X^.",
"X.X.7.D.F.a.3.<.j. .I K A n n 5 n [ p.5.P T U W U w i 3.g I } W W H G p p.B % i ! p 4.9...y r J i q b V b b :.|.oXXXXXXXXX4XaXXX",
"n.8.8.~.!.7.7.8.&X6.J ..L d G 8 G p j Q | Q u.[ u w a 2.j j i } ~ R w 2 ^ 7 % 2 I 2 R 8.7.s < < 2 s E m B B >.|.XXpXsXpX4XaXaXpX",
"].F.D.{.).i.] 5.} 2.j.p.G L f R Q p y j  .[ [ Q v 6 h w.1.u 8 B J J u H v 7 6 v W R q #.V.P q 5 6 B E B n Z :.|.XXsXsXsXpXpXxXxX",
"'.`.F.:X1XD.u.%.$.3.P.S.4.[ L g ! W <.y q 3.J q 3 v l 3.p 2 A 4 5 8 2 n 8 : 6 U { ' L b O.#.U z : > < 2 w B ) c.c.pXsXpXoX4XxXxX",
"`.`.Q.2XtXD.(.g.z.4.w.q.q.<.w.1.!  .G., B ' v 5 5 n k ,.p i w 5 8 8 M v 5 3 H 5.| ` u.7.b v Y V < 3 @ @ q m L @.XX%XaX X X|.gXxX",
"C.qXuXhX3Xp.p.u.f.f.6.[ j 2.1.6._ [ h.r h W 2 , N n / e.~ W w 8 8 8 v 6 5 6 p !  .C k.D.r < z E L v m 6 = = i L >.iX4XT.T.T.gXgX",
"V.].hX@XW.a.k.!.*X*Xk. .L B q v.9.a <.b.2.s w N R u d p./ g W ~ ~ J 2 7 5 2 n i %.E } G w u > v L e G G v ; s s Z c.oXz.Y.T.gXaX",
"I.Q.1XV.i.x.W.(.*X).x.s./ v d S.P.3.,Xb.R J ! 2.h.E m L e s 6.G.! 2 H B r J 8 u ! s.P r r d 6 L ^ p w n n i i L B Y T.s.z.Y.aX#X",
"/.N.Y.d.W.).T.^..X!.g.z.g.@.~  .S.b.,.h n m a.9.L.! U U 9 x P ] p J [ L d ! L r u R ..[ s r 5 r s d J u 1 n < q b v ) z.l.z.#X.X",
"{.d.o.5XaX).g.!. Xf.s.g.^.x.~ ..Y E E  .} T D.e.S.[ H J 2 C D a g 6.1.J s Q E [ v < } Q d t v > E { u 2 z 4 < n v v B =.I.d.^.T.",
"4X].-.NXbX^.l.s...*.s.l./.).V.&.( %.D.k.R ) -Xk.t.[ r.$.R +.D C U w.,.2.Q a.[ D.v x T L d 0 6 7 N 4.H n q b L L w < b #.I.d./.N.",
"dXY.` BXNX/..X/.} ..*.I.^.)./.d. .x.>Xj.^ S ~.%.Q  .1X.X$.C F D # = r d l &X} =.| ) T f d < 5 4 2 I q n j Q U s q 6 b s.Q.Y.T.I.",
"5XY.*.cXcX5X X).*.%.*.u.d.5X].I.-.K U d Z A u.5.Q y.eX1Xt.Y D F # o . + ,.e.` 7.7.` E l Q M & 4 u J H 2 p 4.L q z b P N.Y./.Q.Y.",
"4X#X XjXdXT.I.I.#.d.V.u.u.5X+X X{.%.U Q L B E ] E t.2Xl.^ q D ;.# O o # 7.S...Z.[ B ..3. .b & & w w 2 2 u p j q z T I.V.V.Q././.",
"{.6XeX@X/.*.d.V.i.W.W.d.*.1X2X+X1X{.V.s.t.@.-.U J t.`.g.v z +.;.c # O O + i 2.p 1 < i s r q 6 5 ; n e iXMXmXv q Y *.N.N.Q.{.2X9X",
"`.6XjX/./.N.W./.Q.W.Q.d.o.1X5X@X+X{.I.V.V.)./.W.s.Q.{.`.B < +.F c # O O o + , 2 8 6 = d m 0 L } s n u z.oXc.V V =.o.*.C.}.qXrXwX",
">X3XjX{.'.W.Q.`.{.{./.i.] {.2X@X1X9X_._.`.hXkXyX2X-X`.`.Z z C F c O O O o + , ^ @.Y : H m w I Q  .| @.%.s.V.I.Y.}.C.C.].:X0XqX'.",
"=X:XqX~.{.~.~.{.2X1X{.*.] /.2X4XeXqX{.}.'.zXlXrXwX:X`._.Y $ z c c O . o . X v f.t.$.n , b E u.x.W.Q./.Q.V.].5XeXeX@X{.].{.}.}.}.",
"P.~.Z.`.`.`.Q.`.2X2X/.i.] {.{.1XdX9X'.}._.kXlX0XqX:X`.J.v $ > = 9 O   .   + n k.^  .R Y &.W.+X2X+XV.N.n.n.V.C.'.:X}._.J.J.'.:X9X",
"H.F.8.=X`.=XD.A.{._.C.i.o.4X{.+X5X2X_.'.F.rXkX7XyXqX`.'.E = 9 + + .     X * H k.~  .t.g..X6X5X{._.V.V.n.V.i.V._.2X'._.Q.U.'.}.9X",
"Z.A.F.~.:X2X`.Q.Q.V.W.d.V.OX{.U.wX{.W.V.W.{.qXqX7X7X7X7X'.i.} t 9 : > m R K s.h.7.{ ] u.zXjX1X/.V.*.i.i.i.i.i.n.C.C.J.n.C.M.}.7X",
"Z.A.~.{.;X-X{.Q.C.C._.N.d._.Q.U.{._.Q.n.C.`.:X2X:X'.7X7XK.7XJ.M.M.A.`.=XtX6X6Xa.i.{ ..o.bXbX1XW.d.i.i.n.i.i.i.n.V.M.C.n.n.X.J.'.",
"Z.H.`.K.H.`.`.Q.V.F.`.V.i.V.Y.V.{./.W.V.V.Q.{.`.'.'.7X:X'.'.J.M.J.'.8XyXuXtX:Xa.7.k ....VXBX1Xl.d.V.U.W.V.V.n.m.m.C.M.n.n.M._._.",
"Z.~.`.F.8.m.F.F.V.F._.C.i.N.V.W.+X}.`.Q.C.F.Q.`.`.K.7X7X'.K.J.A.K.7XyXvXlXqX`.0.7.{ 7. .VXnX).V.V.:X2X}.`.U.V.V.n.C.C.C.`.}.7X0X"
};
